<svg width="16" height="16" viewBox="0 0 16 16" fill="none" xmlns="http://www.w3.org/2000/svg">
<g clip-path="url(#clip0_787_365)">
<path d="M0 8C0 3.58172 3.58172 0 8 0V0C12.4183 0 16 3.58172 16 8V8C16 12.4183 12.4183 16 8 16V16C3.58172 16 0 12.4183 0 8V8Z" fill="#EAFF74"/>
<path d="M6.8892 11H4.56889V4.45455H6.90838C7.56676 4.45455 8.13352 4.58558 8.60866 4.84766C9.08381 5.1076 9.44922 5.48153 9.7049 5.96946C9.96271 6.45739 10.0916 7.04119 10.0916 7.72088C10.0916 8.4027 9.96271 8.98864 9.7049 9.47869C9.44922 9.96875 9.08168 10.3448 8.60227 10.6069C8.125 10.869 7.55398 11 6.8892 11ZM5.95277 9.81428H6.83168C7.24077 9.81428 7.58487 9.74183 7.86399 9.59695C8.14524 9.44993 8.35618 9.22301 8.4968 8.91619C8.63956 8.60724 8.71094 8.20881 8.71094 7.72088C8.71094 7.23722 8.63956 6.84197 8.4968 6.53516C8.35618 6.22834 8.14631 6.00249 7.86719 5.8576C7.58807 5.71271 7.24396 5.64027 6.83487 5.64027H5.95277V9.81428ZM11.4739 11.0831C11.263 11.0831 11.0819 11.0085 10.9306 10.8594C10.7814 10.7081 10.7069 10.527 10.7069 10.3161C10.7069 10.1072 10.7814 9.92827 10.9306 9.77912C11.0819 9.62997 11.263 9.5554 11.4739 9.5554C11.6784 9.5554 11.8574 9.62997 12.0108 9.77912C12.1642 9.92827 12.2409 10.1072 12.2409 10.3161C12.2409 10.4567 12.2047 10.5856 12.1323 10.7028C12.062 10.8178 11.9693 10.9105 11.8542 10.9808C11.7392 11.049 11.6124 11.0831 11.4739 11.0831Z" fill="black"/>
</g>
<defs>
<clipPath id="clip0_787_365">
<path d="M0 8C0 3.58172 3.58172 0 8 0V0C12.4183 0 16 3.58172 16 8V8C16 12.4183 12.4183 16 8 16V16C3.58172 16 0 12.4183 0 8V8Z" fill="white"/>
</clipPath>
</defs>
</svg>
